Coordinates
version=1
nRows=16
nColumns=40
inDegrees=yes

Units are S.I. units (second, meters, Newtons, ...)
Angles are in degrees.

endheader
time	pelvis_tilt	pelvis_list	pelvis_rotation	pelvis_tx	pelvis_ty	pelvis_tz	hip_flexion_r	hip_adduction_r	hip_rotation_r	knee_angle_r	knee_angle_r_beta	ankle_angle_r	subtalar_angle_r	mtp_angle_r	hip_flexion_l	hip_adduction_l	hip_rotation_l	knee_angle_l	knee_angle_l_beta	ankle_angle_l	subtalar_angle_l	mtp_angle_l	lumbar_extension	lumbar_bending	lumbar_rotation	arm_flex_r	arm_add_r	arm_rot_r	elbow_flex_r	pro_sup_r	wrist_flex_r	wrist_dev_r	arm_flex_l	arm_add_l	arm_rot_l	elbow_flex_l	pro_sup_l	wrist_flex_l	wrist_dev_l
     13.04664286	     -4.03151018	     -2.44480853	     -3.81660201	      0.96902067	      0.91940933	      0.44488455	     30.82988387	     -2.47754949	    -14.07514686	     17.62007568	     17.62007568	      3.55358293	      4.51881530	      7.83576170	     -1.05461922	     -2.82515702	    -10.60648891	     12.44569567	     12.44569567	     17.95713273	     -7.73273035	     -6.44045778	    -11.71110594	      3.54608035	      4.30691587	    -15.72325683	    -14.91132809	     -0.73407136	     25.69441254	     46.40085124	      0.00000000	      0.00000000	     19.96360712	    -14.21583028	     -8.25519267	    105.48223835	     48.47667706	      0.00000000	      0.00000000
     13.05828571	     -4.06837785	     -2.46626409	     -3.84134622	      0.97182171	      0.91727122	      0.44723124	     30.21562021	     -2.08350425	    -14.43292609	     17.27954990	     17.27954990	      3.01177200	      4.40145735	      6.73047823	     -1.72895779	     -3.05016003	    -11.06774037	     12.69661496	     12.69661496	     19.13391143	     -6.69907414	     -5.49798789	    -11.47794003	      3.46401026	      3.99868935	    -17.37536540	    -14.95317791	     -0.76759621	     27.46675543	     46.29523475	      0.00000000	      0.00000000	     19.09402290	    -14.35068565	     -8.86634890	    108.00944489	     48.59673148	      0.00000000	      0.00000000
     13.06992857	     -4.13479638	     -2.57667878	     -3.88555432	      0.97453886	      0.91527203	      0.44976806	     29.68833064	     -1.60133138	    -14.58465239	     17.29043312	     17.29043312	      2.57334600	      3.96749298	      6.09522669	     -2.36790992	     -3.33996410	    -11.17723563	     12.89834912	     12.89834912	     19.80654029	     -6.49658478	     -5.20645048	    -11.18592321	      3.47366444	      4.24579697	    -18.57538391	    -14.74929282	     -0.68703346	     27.47078001	     46.27359893	      0.00000000	      0.00000000	     18.74216756	    -14.00075886	     -8.92263856	    109.40514400	     48.63883397	      0.00000000	      0.00000000
     13.08157143	     -4.18781200	     -2.72834588	     -3.89229669	      0.97728359	      0.91340888	      0.45256940	     29.12831587	     -1.05691686	    -14.48691912	     17.36246346	     17.36246346	      1.13573384	      2.93699922	      2.51834674	     -2.78959894	     -3.82640330	    -11.70073156	     13.64368152	     13.64368152	     21.21351636	     -5.38661460	     -3.66347220	    -10.93918838	      3.52473908	      3.82058167	    -19.44764798	    -14.71099173	     -0.62384011	     28.48285577	     46.20372583	      0.00000000	      0.00000000	     17.66570667	    -14.23903484	     -9.54803707	    111.08455703	     48.75769346	      0.00000000	      0.00000000
     13.09321429	     -4.29620689	     -2.89019746	     -3.90703136	      0.97982980	      0.91176188	      0.45543585	     28.87980503	     -0.60382752	    -14.34098166	     18.07777502	     18.07777502	      0.88136692	      2.03480364	      1.86341540	     -3.11031690	     -4.25492837	    -11.66388677	     14.32629790	     14.32629790	     21.64440027	     -5.62388135	     -3.60759146	    -10.63544601	      3.56993100	      4.09077341	    -20.06300050	    -14.42399397	     -0.52581778	     28.26902506	     46.19785175	      0.00000000	      0.00000000	     17.15412829	    -13.91744834	     -9.46130237	    111.98896099	     48.77828015	      0.00000000	      0.00000000
     13.10485714	     -4.25121747	     -3.15083727	     -3.92580697	      0.98234313	      0.91092039	      0.45841072	     28.43682967	     -0.12538532	    -14.27717697	     18.81784134	     18.81784134	      0.78553643	      1.68797152	      1.57995266	     -3.65831217	     -4.77699877	    -11.59620232	     14.87402793	     14.87402793	     21.76211238	     -5.85768175	     -3.60573536	    -10.58321705	      3.76762429	      4.19022784	    -20.38128945	    -14.08784572	     -0.47751191	     28.17190792	     46.19482748	      0.00000000	      0.00000000	     16.37999758	    -13.81986852	     -9.42831992	    112.08806027	     48.77623564	      0.00000000	      0.00000000
     13.11650000	     -4.16984003	     -3.38698823	     -3.99391586	      0.98472844	      0.91048980	      0.46153987	     28.02264290	      0.32930988	    -14.09275780	     19.68399133	     19.68399133	      0.88924941	      1.16228167	      1.20306361	     -4.02398987	     -5.32293063	    -11.59723575	     15.83827869	     15.83827869	     21.79371277	     -6.26895589	     -3.65191230	    -10.61764121	      3.87689921	      4.33945371	    -20.40522626	    -13.75879283	     -0.43154253	     28.15915585	     46.19117746	      0.00000000	      0.00000000	     15.54021695	    -13.60422507	     -9.33605314	    112.24439715	     48.77103874	      0.00000000	      0.00000000
     13.12814286	     -4.58344623	     -3.59600629	     -3.88581699	      0.98618954	      0.90941815	      0.46465535	     28.36671292	      0.82293768	    -13.27356321	     20.74662948	     20.74662948	      0.72047333	     -0.80027663	      0.28095432	     -2.97279939	     -6.12897750	    -11.41347152	     18.33858129	     18.33858129	     22.01985104	     -6.75956099	     -4.03506126	    -10.22338750	      4.00343567	      4.20848081	    -19.93758489	    -13.53895049	     -0.37499878	     28.12947853	     46.19140005	      0.00000000	      0.00000000	     14.40347872	    -13.65647661	     -9.44135900	    113.29199694	     48.80556795	      0.00000000	      0.00000000
     13.13978571	     -4.59668029	     -3.90455461	     -3.81591129	      0.98787682	      0.90966013	      0.46781046	     28.07351778	      1.31327806	    -12.96113896	     21.52703876	     21.52703876	      0.93588012	     -1.65331038	     -0.35612984	     -2.53138844	     -6.95934359	    -11.23489801	     20.48031697	     20.48031697	     21.73244921	     -7.33638062	     -4.39606580	    -10.30696773	      4.20521947	      4.03105035	    -19.23576303	    -13.41492150	     -0.23793551	     27.99930001	     46.19270464	      0.00000000	      0.00000000	     13.19559030	    -13.61890026	     -9.59369672	    113.35203003	     48.82094549	      0.00000000	      0.00000000
     13.15142857	     -4.50603472	     -4.12326092	     -3.78737989	      0.98948726	      0.91053796	      0.47097395	     27.61280794	      1.68173738	    -12.76650096	     22.18327719	     22.18327719	      1.37727562	     -2.03488441	     -0.69483679	     -2.06985797	     -7.67390349	    -10.98124944	     22.81420627	     22.81420627	     21.07134795	     -8.18927205	     -4.83981578	    -10.50997370	      4.30595799	      3.97924725	    -18.37874134	    -13.16303761	     -0.05186330	     27.93498745	     46.18912366	      0.00000000	      0.00000000	     11.97980909	    -13.42456982	     -9.59587309	    112.93999689	     48.81364601	      0.00000000	      0.00000000
     13.16307143	     -4.50288535	     -4.31895123	     -3.68375831	      0.99078272	      0.91164638	      0.47398979	     27.16370395	      1.98112358	    -12.72081932	     22.65391181	     22.65391181	      1.94879265	     -2.21494986	     -0.83985592	     -1.16627087	     -8.40837845	    -10.53349473	     25.65654581	     25.65654581	     20.06185367	     -9.31072828	     -5.46588206	    -10.63460778	      4.40807205	      3.89880221	    -17.28087530	    -12.92119480	      0.17282105	     27.91588075	     46.18305746	      0.00000000	      0.00000000	     10.75913504	    -13.27206014	     -9.55723847	    112.14279593	     48.79516095	      0.00000000	      0.00000000
     13.17471429	     -4.48900326	     -4.47263847	     -3.54049848	      0.99186998	      0.91307544	      0.47687462	     26.60489303	      2.20399992	    -12.84044946	     22.91598209	     22.91598209	      2.61106683	     -2.12054561	     -0.85080538	     -0.04340599	     -9.09862608	     -9.96261528	     28.78881360	     28.78881360	     18.68647142	    -10.60846075	     -6.11121513	    -10.77795420	      4.49578894	      3.79431656	    -16.02337008	    -12.71743003	      0.41245299	     27.96672237	     46.17436407	      0.00000000	      0.00000000	      9.55073910	    -13.11202157	     -9.45885004	    110.94680670	     48.76373509	      0.00000000	      0.00000000
     13.18635714	     -4.48746893	     -4.59027262	     -3.36453827	      0.99275320	      0.91471956	      0.47968159	     25.95211360	      2.37314631	    -13.09546508	     22.96349954	     22.96349954	      3.31656695	     -1.74757585	     -0.76098517	      1.30348303	     -9.73363329	     -9.25548932	     32.15076734	     32.15076734	     17.00591541	    -12.04829723	     -6.68263996	    -10.92760926	      4.49560200	      3.66295580	    -14.64136541	    -12.53693033	      0.66988032	     28.08867742	     46.16234716	      0.00000000	      0.00000000	      8.36231903	    -12.94123944	     -9.31383086	    109.30991368	     48.71990689	      0.00000000	      0.00000000
     13.19800000	     -4.51094165	     -4.57370697	     -3.12282395	      0.99349494	      0.91647081	      0.48206071	     25.27288053	      2.32486069	    -13.54475116	     22.90932181	     22.90932181	      4.13842057	     -0.98713159	     -0.40198220	      2.83292432	    -10.13712609	     -8.40954999	     35.57170840	     35.57170840	     14.93958011	    -13.84707569	     -7.21653084	    -10.94883557	      4.48733811	      3.49059218	    -13.06529124	    -12.38942677	      1.12179266	     28.11183151	     46.14157213	      0.00000000	      0.00000000	      7.31434936	    -12.74557979	     -9.20190952	    106.76669211	     48.66418527	      0.00000000	      0.00000000
     13.20964286	     -4.49300603	     -4.70321249	     -2.80521118	      0.99399873	      0.91825513	      0.48430904	     24.42270033	      2.44414436	    -14.12879058	     22.58075728	     22.58075728	      4.74041135	     -0.32955640	     -0.25812599	      4.55523913	    -10.75811434	     -7.64053294	     39.27032719	     39.27032719	     13.09541773	    -15.11418693	     -7.14972638	    -11.08736539	      4.61712796	      3.35034565	    -11.63309689	    -12.36076999	      1.30152220	     28.48374073	     46.12477970	      0.00000000	      0.00000000	      6.29606291	    -12.52959717	     -8.87695793	    104.59638922	     48.59794901	      0.00000000	      0.00000000
     13.22128571	     -4.44697325	     -4.83230152	     -2.47351438	      0.99431790	      0.92002994	      0.48642811	     23.54524023	      2.56094502	    -14.73524165	     22.24117395	     22.24117395	      5.25676796	      0.34635442	     -0.20734721	      6.35205210	    -11.35186414	     -6.89477929	     42.94224841	     42.94224841	     11.36356325	    -16.25316147	     -6.65909284	    -11.28482677	      4.71693601	      3.19173187	    -10.02093946	    -12.37241302	      1.38772447	     29.03494585	     46.10881293	      0.00000000	      0.00000000	      5.32530293	    -12.24600469	     -8.49455186	    102.14592437	     48.52122133	      0.00000000	      0.00000000
